# xmcd CD database file
#
# Track frame offsets:
#	212
#	25995
#	55200
#	79882
#	109727
#	135142
#	152242
#	169305
#	199312
#	227562
#	256395
#
# Disc length: 3666 seconds
#
# Revision: 1
# Processed by: cddbd v1.5PL3 Copyright (c) Steve Scherf et al.
# Submitted via: CDex 1.51
#
DISCID=8e0e500b
DTITLE=Jerry McCain - I've Got The Blues All Over Me
DYEAR=1993
DGENRE=Blues
TTITLE0=He Don't Need No Money
TTITLE1=I ain't Henpecked
TTITLE2=I've got the Blues All over Me
TTITLE3=Tumblin' in the Sea
TTITLE4=Long Arm of the Law
TTITLE5=(She Might Sell My)  Teddy Bear
TTITLE6=Lucy Pearl
TTITLE7=I ain't got Time
TTITLE8=I'm gonna get All the Lovin' I can Get
TTITLE9=Just a Little Bit
TTITLE10=I want to be Your Santa Claus
EXTD=YEAR: 1993
EXTT0=
EXTT1=
EXTT2=
EXTT3=
EXTT4=
EXTT5=
EXTT6=
EXTT7=
EXTT8=
EXTT9=
EXTT10=
PLAYORDER=
